<?xml version="1.0" encoding="utf-8"?>
<!-- Generator: Adobe Illustrator 22.0.0, SVG Export Plug-In . SVG Version: 6.00 Build 0)  -->
<svg version="1.1" id="Layer_1" xmlns="http://www.w3.org/2000/svg" xmlns:xlink="http://www.w3.org/1999/xlink" x="0px" y="0px"
	 viewBox="0 0 16 16" style="enable-background:new 0 0 16 16;" xml:space="preserve">
<style type="text/css">
	.st0{fill:#221F20;}
</style>
<rect x="11.5269" y="3.1684" transform="matrix(0.9759 -0.2183 0.2183 0.9759 -1.33 2.7795)" class="st0" width="0.7708" height="8.4793"/>
<path class="st0" d="M11.5413,11.0457l-1.5146-6.7703L0,8.8883l0.6732,3.009l2.3288-0.1825l0.4326,1.9337l5.2661-1.1777
	L8.4362,11.289L11.5413,11.0457z M7.7798,11.8867l-3.7612,0.8418l-0.2401-1.0746l3.8813-0.3041L7.7798,11.8867z"/>
<g>
	<path class="st0" d="M13,5.3521c-0.0996,0-0.1982-0.0381-0.2744-0.1143c-0.1494-0.1514-0.1475-0.3955,0.0029-0.5449l0.9229-0.9126
		c0.1523-0.1494,0.3955-0.1479,0.5459,0.0029c0.1494,0.1514,0.1484,0.3955-0.0029,0.5449l-0.9229,0.9126
		C13.1963,5.3149,13.0977,5.3521,13,5.3521z"/>
</g>
<g>
	<path class="st0" d="M15.126,10.124c-0.0537,0-0.1084-0.0117-0.1611-0.0352l-1.1797-0.541
		c-0.1934-0.0889-0.2783-0.3174-0.1895-0.5117c0.0898-0.1934,0.3164-0.2769,0.5117-0.1895l1.1797,0.541
		c0.1934,0.0889,0.2783,0.3174,0.1895,0.5117C15.4111,10.04,15.2715,10.124,15.126,10.124z"/>
</g>
<g>
	<path class="st0" d="M13.499,7.438c-0.1689,0-0.3232-0.1118-0.3711-0.2822c-0.0576-0.2046,0.0625-0.4175,0.2676-0.4746
		l2.0742-0.5796c0.2041-0.0591,0.417,0.0625,0.4746,0.2676c0.0576,0.2046-0.0625,0.4175-0.2676,0.4746l-2.0742,0.5796
		C13.5684,7.4331,13.5332,7.438,13.499,7.438z"/>
</g>
</svg>
