<?xml version="1.0" encoding="utf-8"?>
<!-- Generator: Adobe Illustrator 21.1.0, SVG Export Plug-In . SVG Version: 6.00 Build 0)  -->
<svg version="1.1" id="Layer_1" xmlns="http://www.w3.org/2000/svg" xmlns:xlink="http://www.w3.org/1999/xlink" x="0px" y="0px"
	 viewBox="0 0 16 16" style="enable-background:new 0 0 16 16;" xml:space="preserve">
<path d="M13.5,3.1l-1,1.1l-0.8-0.7l1-1.1L11.2,1L7.5,5.1L3.8,1L2.3,2.4l1,1.1L2.5,4.2l-1-1.1L0,4.4L5,10v5h5v-5l5-5.6L13.5,3.1z
	 M4.9,6.8L3.7,5.5l0.8-0.7l1.2,1.3L4.9,6.8z M8,13H7v-2h1V13z M7.5,9.6L6.1,8.1l0.8-0.7l0.7,0.7l0.7-0.7l0.8,0.7L7.5,9.6z M10.1,6.8
	L9.3,6.1l1.2-1.3l0.8,0.7L10.1,6.8z"/>
</svg>
