<svg xmlns="http://www.w3.org/2000/svg" viewBox="0 0 64 64"><path d="m15.01 10h-13.01a1.01086 1.01086 0 0 0 -1.0006 1.0203v51.96a1.01143 1.01143 0 0 0 1.0006 1.0203h13.01m-3.0199-5.6505a1.6474 1.6474 0 0 1 -1.635 1.6584h-4.701a1.6474 1.6474 0 0 1 -1.635 -1.6584v-4.699a1.64921 1.64921 0 0 1 1.4987 -1.6584 1.291 1.291 0 0 1 .1363 0h4.701a1.6474 1.6474 0 0 1 1.635 1.6584m0-7.3063a1.63866 1.63866 0 0 1 -1.635 1.6411h-4.701a1.63866 1.63866 0 0 1 -1.635 -1.6411v-4.684a1.63891 1.63891 0 0 1 1.4649 -1.641 1.41961 1.41961 0 0 1 .1701 0h4.701a1.63858 1.63858 0 0 1 1.635 1.641m0-7.3043a1.64288 1.64288 0 0 1 -1.635 1.6496h-4.701a1.64288 1.64288 0 0 1 -1.635 -1.6496v-4.708a1.64425 1.64425 0 0 1 1.4649 -1.6496 1.46255 1.46255 0 0 1 .1701 0h4.701a1.64288 1.64288 0 0 1 1.635 1.6496m0-7.3055a1.63858 1.63858 0 0 1 -1.635 1.641h-4.701a1.63858 1.63858 0 0 1 -1.635 -1.641v-4.684a1.63908 1.63908 0 0 1 1.4649 -1.6411 1.46255 1.46255 0 0 1 .1701 0h4.701a1.63866 1.63866 0 0 1 1.635 1.6411m35.03 46.34v-62.835a1.102 1.102 0 0 0 -1.0144 -1.1648h-27.998a1.09077 1.09077 0 0 0 -1.0144 1.1648v62.835h10.01v-11a.88029 .88029 0 0 1 1 -1.0002h8a.88033 .88033 0 0 1 1 1.0002v11m-3.0171-58.3434a1.65035 1.65035 0 0 1 1.4852 -1.6458 1.50234 1.50234 0 0 1 .1724 0h4.697a1.65226 1.65226 0 0 1 1.6576 1.6458v4.698a1.65249 1.65249 0 0 1 -1.6576 1.646h-4.697a1.65249 1.65249 0 0 1 -1.6576 -1.646m0 7.2948a1.6504 1.6504 0 0 1 1.4852 -1.646 1.50234 1.50234 0 0 1 .1724 0h4.697a1.65249 1.65249 0 0 1 1.6576 1.646v4.698a1.65226 1.65226 0 0 1 -1.6576 1.6458h-4.697a1.65226 1.65226 0 0 1 -1.6576 -1.6458m0 7.2958a1.6504 1.6504 0 0 1 1.4852 -1.646 1.50234 1.50234 0 0 1 .1724 0h4.697a1.65249 1.65249 0 0 1 1.6576 1.646v4.698a1.65226 1.65226 0 0 1 -1.6576 1.6458h-4.697a1.65226 1.65226 0 0 1 -1.6576 -1.6458m-3.9727 11.9934a1.6435 1.6435 0 0 1 -1.6401 1.6458h-4.716a1.6435 1.6435 0 0 1 -1.6401 -1.6458v-4.698a1.64359 1.64359 0 0 1 1.5034 -1.646c.046-.002.091-.002.137 0h4.716a1.64367 1.64367 0 0 1 1.6401 1.646m0-7.2958a1.64344 1.64344 0 0 1 -1.6401 1.6458h-4.716a1.64344 1.64344 0 0 1 -1.6401 -1.6458v-4.698a1.64359 1.64359 0 0 1 1.5034 -1.646c.046-.002.091-.002.137 0h4.716a1.64367 1.64367 0 0 1 1.6401 1.646m0-7.2949a1.6437 1.6437 0 0 1 -1.6401 1.6461h-4.716a1.6437 1.6437 0 0 1 -1.6401 -1.6461v-4.697a1.64326 1.64326 0 0 1 1.5034 -1.6458c.046-.002.091-.002.137 0h4.716a1.64344 1.64344 0 0 1 1.6401 1.6458m0-7.2958a1.64367 1.64367 0 0 1 -1.6401 1.646h-4.716a1.64367 1.64367 0 0 1 -1.6401 -1.646v-4.698a1.64326 1.64326 0 0 1 1.5034 -1.6458c.046-.002.091-.002.137 0h4.716a1.64344 1.64344 0 0 1 1.6401 1.6458m5.6303 42.3226a1.65232 1.65232 0 0 1 -1.6576 -1.6458v-4.698a1.6504 1.6504 0 0 1 1.4852 -1.646 1.45822 1.45822 0 0 1 .1724 0h4.697a1.65249 1.65249 0 0 1 1.6576 1.646v4.698a1.65232 1.65232 0 0 1 -1.6576 1.6458m8.663-25.98h13.01a1.011 1.011 0 0 1 1.0005 1.0203v39.96a1.01141 1.01141 0 0 1 -1.0005 1.0203h-13.01m3.0199-5.6557a1.6386 1.6386 0 0 0 1.635 1.6411h4.701a1.6386 1.6386 0 0 0 1.635 -1.6411v-4.684a1.63909 1.63909 0 0 0 -1.465 -1.6411 1.46083 1.46083 0 0 0 -.17 0h-4.701a1.6386 1.6386 0 0 0 -1.635 1.6411m0-7.3044a1.64288 1.64288 0 0 0 1.635 1.6496h4.701a1.64288 1.64288 0 0 0 1.635 -1.6496v-4.708a1.6447 1.6447 0 0 0 -1.465 -1.6499 1.55493 1.55493 0 0 0 -.17 0h-4.701a1.64314 1.64314 0 0 0 -1.635 1.6499m0-7.3056a1.6386 1.6386 0 0 0 1.635 1.6411h4.701a1.6386 1.6386 0 0 0 1.635 -1.6411v-4.684a1.639 1.639 0 0 0 -1.465 -1.641 1.46083 1.46083 0 0 0 -.17 0h-4.701a1.63858 1.63858 0 0 0 -1.635 1.641" fill="#677480"/></svg>